<svg xmlns="http://www.w3.org/2000/svg" viewBox="40 -34 220 510" width="220" height="510"><ellipse cx="150" cy="462" rx="72" ry="6" fill="#000" opacity=".14"/><path d="M127 248 L149 248 L146 442 L132 442 Z" fill="#E3B48F"/><path d="M151 248 L173 248 L168 442 L154 442 Z" fill="#E3B48F"/><path d="M116 120 L100 232" stroke="#1B8AA8" stroke-width="14" stroke-linecap="round" fill="none"/><path d="M184 120 L200 232" stroke="#1B8AA8" stroke-width="14" stroke-linecap="round" fill="none"/><path d="M100 232 L98 250" stroke="#E3B48F" stroke-width="9" stroke-linecap="round" fill="none"/><path d="M200 232 L202 250" stroke="#E3B48F" stroke-width="9" stroke-linecap="round" fill="none"/><path d="M122 112 L178 112 L184 190 L206 440 L94 440 L116 190 Z" fill="#1B8AA8"/><path d="M104 396 L196 396 L198 430 L102 430 Z" fill="#8E1F2F"/><path d="M106.0 430 L110.7 398 L115.4 430" fill="none" stroke="#D9A93A" stroke-width="2"/><path d="M115.5 430 L120.2 398 L124.9 430" fill="none" stroke="#D9A93A" stroke-width="2"/><path d="M125.0 430 L129.7 398 L134.4 430" fill="none" stroke="#D9A93A" stroke-width="2"/><path d="M134.5 430 L139.2 398 L143.9 430" fill="none" stroke="#D9A93A" stroke-width="2"/><path d="M144.0 430 L148.7 398 L153.4 430" fill="none" stroke="#D9A93A" stroke-width="2"/><path d="M153.5 430 L158.2 398 L162.9 430" fill="none" stroke="#D9A93A" stroke-width="2"/><path d="M163.0 430 L167.7 398 L172.4 430" fill="none" stroke="#D9A93A" stroke-width="2"/><path d="M172.5 430 L177.2 398 L181.9 430" fill="none" stroke="#D9A93A" stroke-width="2"/><path d="M182.0 430 L186.7 398 L191.4 430" fill="none" stroke="#D9A93A" stroke-width="2"/><path d="M191.5 430 L196.2 398 L200.9 430" fill="none" stroke="#D9A93A" stroke-width="2"/><path d="M102 392 L198 392 M101 434 L199 434" stroke="#D9A93A" stroke-width="3"/><path d="M122 114 L142 114 L148 232 L120 232 Z" fill="#8E1F2F"/><path d="M178 114 L158 114 L152 232 L180 232 Z" fill="#8E1F2F"/><path d="M122 114 L142 114 L148 232 L120 232 Z" fill="none" stroke="#D9A93A" stroke-width="3"/><path d="M178 114 L158 114 L152 232 L180 232 Z" fill="none" stroke="#D9A93A" stroke-width="3"/><g transform="translate(120 150) scale(0.55)" fill="none" stroke="#D9A93A" stroke-width="2" stroke-linecap="round"><path d="M15 18 C15 12 8 12 6 7 C4 2 10 0 12 4 C13 7 9 8 9 6"/><path d="M15 18 C15 12 22 12 24 7 C26 2 20 0 18 4 C17 7 21 8 21 6"/></g><g transform="translate(150 150) scale(0.55)" fill="none" stroke="#D9A93A" stroke-width="2" stroke-linecap="round"><path d="M15 18 C15 12 8 12 6 7 C4 2 10 0 12 4 C13 7 9 8 9 6"/><path d="M15 18 C15 12 22 12 24 7 C26 2 20 0 18 4 C17 7 21 8 21 6"/></g><rect x="118" y="196" width="64" height="12" rx="2" fill="#D9A93A"/><circle cx="126" cy="202" r="3" fill="#B4372B"/><circle cx="140" cy="202" r="3" fill="#B4372B"/><circle cx="154" cy="202" r="3" fill="#B4372B"/><circle cx="168" cy="202" r="3" fill="#B4372B"/><path d="M104 440 Q98 456 118 456 L132 456 L132 440 Z" fill="#6B3A1E"/><path d="M196 440 Q202 456 182 456 L168 456 L168 440 Z" fill="#6B3A1E"/><path d="M134 80 Q124 160 128 214" stroke="#1E1410" stroke-width="10" stroke-linecap="round" fill="none"/><path d="M166 80 Q176 160 172 214" stroke="#1E1410" stroke-width="10" stroke-linecap="round" fill="none"/><path d="M134 80 Q124 160 128 214" stroke="#4B3A30" stroke-width="10" stroke-dasharray="2 5" fill="none"/><path d="M166 80 Q176 160 172 214" stroke="#4B3A30" stroke-width="10" stroke-dasharray="2 5" fill="none"/><rect x="143" y="84" width="14" height="30" rx="5" fill="#E3B48F"/><ellipse cx="150" cy="62" rx="21" ry="27" fill="#E3B48F"/><path d="M129 54 C132 40 168 40 171 54 Q150 48 129 54Z" fill="#1E1410"/><path d="M122 46 C128 14 140 -6 150 -18 C160 -6 172 14 178 46 Z" fill="#FFFFFF" stroke="#D9A93A" stroke-width="2"/><rect x="121" y="36" width="58" height="12" rx="2" fill="#B4372B"/><rect x="121" y="36" width="58" height="12" rx="2" fill="none" stroke="#D9A93A" stroke-width="2"/><circle cx="150" cy="-20" r="5" fill="#D9A93A"/><path d="M150 -25 L146 -31 M150 -25 L154 -31 M150 -25 L150 -33" stroke="#E8E8E8" stroke-width="2" stroke-linecap="round"/><circle cx="142" cy="12" r="3" fill="#D9A93A"/><circle cx="158" cy="12" r="3" fill="#D9A93A"/><circle cx="150" cy="0" r="3" fill="#D9A93A"/><circle cx="150" cy="24" r="3" fill="#D9A93A"/><circle cx="136" cy="28" r="3" fill="#D9A93A"/><circle cx="164" cy="28" r="3" fill="#D9A93A"/><path d="M123 50 L123 92" stroke="#FFFFFF" stroke-width="3" stroke-dasharray="0 5" stroke-linecap="round"/><path d="M177 50 L177 92" stroke="#FFFFFF" stroke-width="3" stroke-dasharray="0 5" stroke-linecap="round"/></svg>